<svg width="4220" height="4220" viewBox="0 0 4220 4220" fill="none" xmlns="http://www.w3.org/2000/svg">
<path fill-rule="evenodd" clip-rule="evenodd" d="M1410.47 2329.35C1377.6 2329.35 1348.46 2348.91 1350.43 2389.81C1357.56 2537.96 1376.74 2661.82 1393.37 2785L1396.89 2800.13C1402.31 2831.31 1429.87 2850.86 1459.85 2850.86H2774.79C2802.35 2850.86 2826.45 2831.91 2833.44 2804.73L2837.77 2787.91C2859.92 2681.37 2872.71 2570.55 2886.19 2385.63C2888.86 2348.91 2860.9 2329.35 2830.31 2329.35H1410.47ZM1811.47 2498.85C1804.41 2498.85 1798.69 2504.68 1798.69 2511.89V2668.34C1798.69 2675.54 1804.41 2681.37 1811.47 2681.37H2425.2C2432.26 2681.37 2437.99 2675.54 2437.99 2668.34V2511.89C2437.99 2504.68 2432.26 2498.85 2425.2 2498.85H1811.47Z" fill="url(#paint0_linear_2205_13)"/>
<path fill-rule="evenodd" clip-rule="evenodd" d="M1415.48 1677.52C1389.96 1677.52 1365.88 1690.55 1360.81 1720C1332.08 1888.75 1329.76 2029.54 1332.64 2147.03C1333.34 2175.95 1356.55 2199.03 1384.93 2199.03H2817.24C2845.62 2199.03 2868.82 2175.95 2869.54 2147.03C2869.54 2023.02 2877.76 1914.83 2841.36 1720C2834.59 1694.91 2812.21 1677.52 2786.68 1677.52H1415.48ZM1794.21 1847.01C1787.16 1847.01 1781.43 1852.85 1781.43 1860.05V2016.5C1781.43 2023.7 1787.16 2029.54 1794.21 2029.54H2407.95C2415.02 2029.54 2420.74 2023.7 2420.74 2016.5V1860.05C2420.74 1852.85 2415.02 1847.01 2407.95 1847.01H1794.21Z" fill="url(#paint1_linear_2205_13)"/>
<rect x="568" y="577" width="3066.85" height="3066.85" rx="1533.43" stroke="#FF0000" stroke-width="500"/>
<path d="M1409.46 1479.06C1519.21 1062.31 1733.28 681.785 2030.71 374.812L2060.42 344.14C2082.75 321.095 2119.31 321.317 2141.37 344.632L2186.51 392.342C2474.45 696.705 2682.73 1070.01 2792.18 1477.93C2801.54 1512.82 2775.79 1547.23 2740.31 1547.23H1460.73C1425.82 1547.23 1400.41 1513.45 1409.46 1479.06Z" fill="url(#paint2_linear_2205_13)"/>
<path fill-rule="evenodd" clip-rule="evenodd" d="M1726.11 3046.39C1726.11 3010.39 1697.48 2981.2 1662.17 2981.2C1626.86 2981.2 1598.24 3010.39 1598.24 3046.39V3214.96L1309.5 3428.67C1265.88 3393.4 1210.72 3372.34 1150.73 3372.34C1009.49 3372.34 895 3489.09 895 3633.09C895 3777.11 1009.49 3893.85 1150.73 3893.85C1291.96 3893.85 1406.45 3777.11 1406.45 3633.09C1406.45 3596.88 1399.21 3562.4 1386.13 3531.06L1688.66 3307.15C1719.71 3281.08 1726.11 3249.54 1726.11 3214.96V3046.39ZM1278.59 3633.09C1278.59 3705.1 1221.34 3763.47 1150.73 3763.47C1080.11 3763.47 1022.86 3705.1 1022.86 3633.09C1022.86 3561.09 1080.11 3502.72 1150.73 3502.72C1221.34 3502.72 1278.59 3561.09 1278.59 3633.09ZM2557.22 2981.2C2521.91 2981.2 2493.29 3010.39 2493.29 3046.39V3214.96C2493.29 3249.54 2493.28 3281.08 2530.74 3307.15L2836.05 3524.61C2821.21 3557.65 2812.94 3594.39 2812.94 3633.09C2812.94 3777.11 2927.44 3893.85 3068.67 3893.85C3209.9 3893.85 3324.39 3777.11 3324.39 3633.09C3324.39 3489.09 3209.9 3372.34 3068.67 3372.34C3011.11 3372.34 2958 3391.72 2915.27 3424.45L2621.15 3214.96V3046.39C2621.15 3010.39 2592.53 2981.2 2557.22 2981.2ZM2940.8 3633.09C2940.8 3705.1 2998.05 3763.47 3068.67 3763.47C3139.28 3763.47 3196.53 3705.1 3196.53 3633.09C3196.53 3561.09 3139.28 3502.72 3068.67 3502.72C2998.05 3502.72 2940.8 3561.09 2940.8 3633.09ZM2109.69 2981.2C2145 2981.2 2173.63 3010.39 2173.63 3046.39V3380.55C2283.92 3409.5 2365.42 3511.59 2365.42 3633.09C2365.42 3777.11 2250.93 3893.85 2109.69 3893.85C1968.46 3893.85 1853.97 3777.11 1853.97 3633.09C1853.97 3511.59 1935.47 3409.5 2045.77 3380.55V3046.39C2045.77 3010.39 2074.39 2981.2 2109.69 2981.2ZM2237.56 3633.09C2237.56 3705.1 2180.31 3763.47 2109.69 3763.47C2039.08 3763.47 1981.83 3705.1 1981.83 3633.09C1981.83 3561.09 2039.08 3502.72 2109.69 3502.72C2180.31 3502.72 2237.56 3561.09 2237.56 3633.09Z" fill="#3180FF"/>
<path d="M1090 1099C2706.8 2715.8 3111 3120 3111 3120" stroke="#FF0000" stroke-width="500"/>
<defs>
<linearGradient id="paint0_linear_2205_13" x1="2500.33" y1="2853.39" x2="2500.33" y2="2326.48" gradientUnits="userSpaceOnUse">
<stop stop-color="#3180FF"/>
<stop offset="1" stop-color="#3FB1FE"/>
</linearGradient>
<linearGradient id="paint1_linear_2205_13" x1="2101.08" y1="1677.52" x2="2101.08" y2="2199.03" gradientUnits="userSpaceOnUse">
<stop stop-color="#3BC6FD"/>
<stop offset="1" stop-color="#32ACFF"/>
</linearGradient>
<linearGradient id="paint2_linear_2205_13" x1="2101.14" y1="373.822" x2="2101.14" y2="1547.23" gradientUnits="userSpaceOnUse">
<stop stop-color="#36E7FC"/>
<stop offset="1" stop-color="#3CC5FE"/>
</linearGradient>
</defs>
</svg>
