<svg width="1683" height="2483" viewBox="0 0 1683 2483" fill="none" xmlns="http://www.w3.org/2000/svg">
<path d="M362.184 828.747C438.184 543.419 586.436 282.9 792.401 72.7344L812.984 51.735C828.446 35.9574 853.763 36.1089 869.036 52.0716L900.294 84.7359C1099.71 293.115 1243.94 548.695 1319.73 827.969C1326.21 851.858 1308.38 875.418 1283.81 875.418H397.688C373.508 875.418 355.913 852.287 362.184 828.747Z" stroke="black" stroke-width="80" stroke-linejoin="round"/>
<path fill-rule="evenodd" clip-rule="evenodd" d="M350.971 1410.99C328.209 1410.99 308.029 1424.38 309.394 1452.38C314.333 1553.81 327.614 1638.6 339.128 1722.94L341.569 1733.3C345.324 1754.65 364.407 1768.04 385.165 1768.04H1295.79C1314.87 1768.04 1331.56 1755.06 1336.41 1736.45L1339.4 1724.93C1354.74 1651.99 1363.59 1576.12 1372.93 1449.51C1374.78 1424.38 1355.41 1410.99 1334.23 1410.99H350.971ZM628.671 1527.03C623.78 1527.03 619.815 1531.02 619.815 1535.95V1643.07C619.815 1647.99 623.78 1651.99 628.671 1651.99H1053.69C1058.58 1651.99 1062.54 1647.99 1062.54 1643.07V1535.95C1062.54 1531.02 1058.58 1527.03 1053.69 1527.03H628.671Z" stroke="black" stroke-width="80" stroke-linejoin="round"/>
<path d="M326.619 2206.45L306.741 2186.41L504.712 2041.54C512.433 2035.89 516.996 2026.9 516.996 2017.33V1901.92C516.996 1893.62 523.611 1887.3 531.268 1887.3C538.926 1887.3 545.541 1893.62 545.541 1901.92V2017.33C545.541 2036.34 542.312 2047.22 531.07 2056.84L326.619 2206.45Z" stroke="black" stroke-width="60" stroke-linejoin="round"/>
<path d="M177.091 2422.87C242.788 2422.87 295.636 2369.25 295.636 2303.61C295.636 2237.96 242.788 2184.35 177.091 2184.35C111.394 2184.35 58.5456 2237.96 58.5456 2303.61C58.5456 2369.25 111.394 2422.87 177.091 2422.87ZM324.182 2303.61C324.182 2385.86 258.099 2452.13 177.091 2452.13C96.082 2452.13 30 2385.86 30 2303.61C30 2221.35 96.0827 2155.08 177.091 2155.08C258.099 2155.08 324.182 2221.35 324.182 2303.61Z" stroke="black" stroke-width="60" stroke-linejoin="round"/>
<path d="M1150.03 2055.92C1149.95 2055.86 1149.86 2055.8 1149.77 2055.74C1142.13 2050.48 1139.92 2046.13 1138.75 2042.29C1137.05 2036.75 1136.82 2030.09 1136.82 2017.33V1901.92C1136.82 1893.62 1143.44 1887.3 1151.1 1887.3C1158.75 1887.3 1165.37 1893.62 1165.37 1901.92V2017.33C1165.37 2027.09 1170.12 2036.24 1178.1 2041.86L1384.02 2186.87L1364.27 2206.78L1150.03 2055.92Z" stroke="black" stroke-width="60" stroke-linejoin="round"/>
<path d="M1386.73 2303.61C1386.73 2369.25 1439.58 2422.87 1505.27 2422.87C1570.97 2422.87 1623.82 2369.25 1623.82 2303.61C1623.82 2237.96 1570.97 2184.35 1505.27 2184.35C1439.58 2184.35 1386.73 2237.96 1386.73 2303.61ZM1505.27 2452.13C1424.27 2452.13 1358.19 2385.86 1358.19 2303.61C1358.19 2221.34 1424.27 2155.08 1505.27 2155.08C1586.28 2155.08 1652.37 2221.35 1652.37 2303.61C1652.37 2385.86 1586.28 2452.13 1505.27 2452.13Z" stroke="black" stroke-width="60" stroke-linejoin="round"/>
<path d="M841.186 1887.3C848.843 1887.3 855.457 1893.62 855.457 1901.92V2139.71H826.914V1901.92C826.914 1893.62 833.528 1887.3 841.186 1887.3Z" stroke="black" stroke-width="60" stroke-linejoin="round"/>
<path d="M841.187 2422.87C906.888 2422.87 959.73 2369.25 959.73 2303.61C959.73 2237.97 906.888 2184.35 841.187 2184.35C775.486 2184.35 722.644 2237.97 722.644 2303.61C722.644 2369.25 775.486 2422.87 841.187 2422.87ZM988.28 2303.61C988.28 2385.86 922.194 2452.13 841.187 2452.13C760.179 2452.13 694.094 2385.86 694.094 2303.61C694.094 2221.35 760.18 2155.08 841.187 2155.08C922.193 2155.08 988.28 2221.35 988.28 2303.61Z" stroke="black" stroke-width="60" stroke-linejoin="round"/>
<path fill-rule="evenodd" clip-rule="evenodd" d="M366.395 964.672C348.718 964.672 332.041 973.603 328.533 993.764C308.638 1109.29 307.028 1205.68 309.022 1286.12C309.513 1305.92 325.581 1321.72 345.233 1321.72H1337.12C1356.77 1321.72 1372.84 1305.92 1373.33 1286.12C1373.33 1201.22 1379.02 1127.15 1353.82 993.764C1349.13 976.58 1333.63 964.672 1315.96 964.672H366.395ZM628.668 1080.72C623.778 1080.72 619.813 1084.71 619.813 1089.64V1196.76C619.813 1201.69 623.778 1205.68 628.668 1205.68H1053.69C1058.58 1205.68 1062.54 1201.69 1062.54 1196.76V1089.64C1062.54 1084.71 1058.58 1080.72 1053.69 1080.72H628.668Z" stroke="black" stroke-width="80" stroke-linejoin="round"/>
</svg>
